<?xml version="1.0" encoding="utf-8"?>
<!-- Generator: Adobe Illustrator 16.0.0, SVG Export Plug-In . SVG Version: 6.00 Build 0)  -->
<!DOCTYPE svg PUBLIC "-//W3C//DTD SVG 1.1//EN" "http://www.w3.org/Graphics/SVG/1.1/DTD/svg11.dtd" [
	<!ENTITY ns_extend "http://ns.adobe.com/Extensibility/1.0/">
	<!ENTITY ns_ai "http://ns.adobe.com/AdobeIllustrator/10.0/">
	<!ENTITY ns_graphs "http://ns.adobe.com/Graphs/1.0/">
	<!ENTITY ns_vars "http://ns.adobe.com/Variables/1.0/">
	<!ENTITY ns_imrep "http://ns.adobe.com/ImageReplacement/1.0/">
	<!ENTITY ns_sfw "http://ns.adobe.com/SaveForWeb/1.0/">
	<!ENTITY ns_custom "http://ns.adobe.com/GenericCustomNamespace/1.0/">
	<!ENTITY ns_adobe_xpath "http://ns.adobe.com/XPath/1.0/">
]>
<svg version="1.1"
	 id="svg53084" xmlns:x="&ns_extend;" xmlns:i="&ns_ai;" xmlns:graph="&ns_graphs;" xmlns:dc="http://purl.org/dc/elements/1.1/" xmlns:cc="http://creativecommons.org/ns#" xmlns:rdf="http://www.w3.org/1999/02/22-rdf-syntax-ns#" xmlns:svg="http://www.w3.org/2000/svg"
	 xmlns="http://www.w3.org/2000/svg" xmlns:xlink="http://www.w3.org/1999/xlink" x="0px" y="0px" width="300px" height="100.559px"
	 viewBox="0 0 300 100.559" enable-background="new 0 0 300 100.559" xml:space="preserve">
<metadata  id="metadata53089">
	<rdf:RDF>
		<cc:Work  rdf:about="">
			<dc:format>image/svg+xml</dc:format>
			<dc:type  rdf:resource="http://purl.org/dc/dcmitype/StillImage"></dc:type>
			<dc:title></dc:title>
		</cc:Work>
	</rdf:RDF>
	<sfw  xmlns="&ns_sfw;">
		<slices></slices>
		<sliceSourceBounds  width="298.12" height="98.984" y="9.825" x="-21.499" bottomLeftOrigin="true"></sliceSourceBounds>
	</sfw>
</metadata>
<g>
	<g>
		<g>
			<path fill="#034EA2" d="M298.937,24.568c4.061,23.274-59.3,53.753-141.533,68.073C75.185,106.961,5.239,99.695,1.185,76.41
				C-2.87,53.135,60.507,22.664,142.727,8.35C224.955-5.983,294.888,1.288,298.937,24.568z"/>
		</g>
		<g>
			<g>
				<polygon fill="#FFFFFF" points="221.545,59.114 221.128,34.915 228.756,34.915 228.756,65.417 217.788,65.417 210.17,40.387 
					210.006,40.387 210.431,65.417 202.845,65.417 202.845,34.915 214.294,34.915 221.381,59.114 				"/>
				<polygon fill="#FFFFFF" points="82.838,37.774 78.617,65.737 70.292,65.737 76.005,34.915 89.715,34.915 95.408,65.737 
					87.114,65.737 83.01,37.774 				"/>
				<polygon fill="#FFFFFF" points="118.781,58.478 122.59,34.915 135.16,34.915 135.825,65.737 128.123,65.737 127.919,38.026 
					127.76,38.026 122.608,65.737 114.788,65.737 109.631,38.026 109.464,38.026 109.273,65.737 101.553,65.737 102.236,34.915 
					114.813,34.915 118.615,58.478 				"/>
				<path fill="#FFFFFF" d="M57.315,57.043c0.302,0.744,0.21,1.706,0.068,2.286c-0.26,1.021-0.955,2.069-3.002,2.069
					c-1.934,0-3.105-1.108-3.105-2.796V55.62h-8.27L43,58.005c0,6.869,5.41,8.946,11.209,8.946c5.576,0,10.167-1.904,10.895-7.042
					c0.375-2.664,0.092-4.408-0.031-5.065c-1.301-6.45-13.002-8.382-13.871-11.985c-0.148-0.617-0.105-1.277-0.031-1.627
					c0.216-0.98,0.888-2.064,2.816-2.064c1.799,0,2.865,1.116,2.865,2.797c0,0.566,0,1.905,0,1.905h7.685v-2.163
					c0-6.718-6.027-7.765-10.389-7.765c-5.484,0-9.964,1.812-10.784,6.827c-0.221,1.387-0.252,2.619,0.068,4.166
					C44.782,51.226,55.725,53.052,57.315,57.043z"/>
				<path fill="#FFFFFF" d="M157.541,56.987c0.301,0.74,0.203,1.675,0.068,2.255c-0.253,1.023-0.945,2.052-2.979,2.052
					c-1.903,0-3.067-1.109-3.067-2.76l-0.007-2.958h-8.183l-0.012,2.354c0,6.804,5.361,8.855,11.098,8.855
					c5.514,0,10.063-1.879,10.783-6.971c0.376-2.643,0.11-4.361-0.024-5.009c-1.294-6.389-12.872-8.299-13.734-11.874
					c-0.148-0.616-0.105-1.265-0.032-1.598c0.223-0.991,0.882-2.045,2.791-2.045c1.787,0,2.829,1.086,2.829,2.762
					c0,0.561,0,1.887,0,1.887h7.63v-2.146c0-6.643-5.978-7.686-10.304-7.686c-5.423,0-9.866,1.787-10.667,6.774
					c-0.222,1.366-0.246,2.575,0.074,4.114C145.13,51.226,155.97,53.036,157.541,56.987z"/>
				<path fill="#FFFFFF" d="M183.428,61.129c2.14,0,2.802-1.479,2.95-2.237c0.063-0.334,0.081-0.777,0.076-1.176V34.902h7.795v22.11
					c0.018,0.566-0.037,1.73-0.069,2.021c-0.548,5.754-5.097,7.62-10.758,7.62c-5.67,0-10.223-1.866-10.767-7.62
					c-0.022-0.291-0.079-1.461-0.066-2.021v-22.11h7.788V57.71c0,0.398,0.013,0.848,0.075,1.176
					C180.623,59.644,181.271,61.129,183.428,61.129z"/>
				<path fill="#FFFFFF" d="M247.729,60.8c2.231,0,3.015-1.409,3.156-2.23c0.055-0.351,0.072-0.782,0.065-1.17v-4.473h-3.161v-4.498
					h10.932v8.275c-0.007,0.58-0.018,1.006-0.11,2.033c-0.512,5.609-5.38,7.61-10.839,7.61c-5.471,0-10.328-2.001-10.851-7.61
					c-0.087-1.027-0.098-1.453-0.111-2.033l0.007-12.977c0-0.549,0.067-1.517,0.13-2.033c0.683-5.763,5.354-7.617,10.825-7.617
					c5.466,0,10.255,1.843,10.821,7.617c0.1,0.979,0.067,2.033,0.067,2.033v1.029h-7.771V43.03c0.006,0.006-0.012-0.732-0.099-1.17
					c-0.129-0.685-0.722-2.25-3.074-2.25c-2.249,0-2.903,1.479-3.07,2.25c-0.092,0.404-0.127,0.953-0.127,1.453v14.1
					c-0.007,0.389,0.018,0.82,0.078,1.17C244.722,59.39,245.499,60.8,247.729,60.8z"/>
			</g>
		</g>
	</g>
</g>
</svg>
